<mxfile host="65bd71144e">
    <diagram id="w3rwaatrHkvb1xGoRdJH" name="第 1 页">
        <mxGraphModel dx="1972" dy="480" grid="1" gridSize="10" guides="1" tooltips="1" connect="1" arrows="1" fold="1" page="1" pageScale="1" pageWidth="900" pageHeight="1600" math="0" shadow="0">
            <root>
                <mxCell id="0"/>
                <mxCell id="1" parent="0"/>
                <mxCell id="2" value="乐队" style="rounded=1;arcSize=10;whiteSpace=wrap;html=1;align=center;" vertex="1" parent="1">
                    <mxGeometry x="220" y="190" width="100" height="40" as="geometry"/>
                </mxCell>
                <mxCell id="3" value="名称" style="ellipse;whiteSpace=wrap;html=1;align=center;" vertex="1" parent="1">
                    <mxGeometry x="170" y="90" width="100" height="40" as="geometry"/>
                </mxCell>
                <mxCell id="4" value="" style="endArrow=none;html=1;rounded=0;exitX=0.5;exitY=1;exitDx=0;exitDy=0;entryX=0.5;entryY=0;entryDx=0;entryDy=0;" edge="1" parent="1" source="3" target="2">
                    <mxGeometry relative="1" as="geometry">
                        <mxPoint x="120" y="250" as="sourcePoint"/>
                        <mxPoint x="280" y="250" as="targetPoint"/>
                    </mxGeometry>
                </mxCell>
                <mxCell id="6" value="" style="endArrow=none;html=1;rounded=0;exitX=0.5;exitY=0;exitDx=0;exitDy=0;" edge="1" parent="1" source="2" target="7">
                    <mxGeometry relative="1" as="geometry">
                        <mxPoint x="120" y="250" as="sourcePoint"/>
                        <mxPoint x="280" y="250" as="targetPoint"/>
                    </mxGeometry>
                </mxCell>
                <mxCell id="7" value="乐队编号(PK)" style="ellipse;whiteSpace=wrap;html=1;align=center;" vertex="1" parent="1">
                    <mxGeometry x="290" y="90" width="100" height="40" as="geometry"/>
                </mxCell>
                <mxCell id="8" value="" style="endArrow=none;html=1;rounded=0;exitX=0;exitY=0.5;exitDx=0;exitDy=0;" edge="1" parent="1" source="2" target="10">
                    <mxGeometry relative="1" as="geometry">
                        <mxPoint x="120" y="250" as="sourcePoint"/>
                        <mxPoint x="280" y="250" as="targetPoint"/>
                    </mxGeometry>
                </mxCell>
                <mxCell id="9" value="1" style="resizable=0;html=1;align=right;verticalAlign=bottom;" connectable="0" vertex="1" parent="8">
                    <mxGeometry x="1" relative="1" as="geometry"/>
                </mxCell>
                <mxCell id="10" value="组成" style="shape=rhombus;perimeter=rhombusPerimeter;whiteSpace=wrap;html=1;align=center;" vertex="1" parent="1">
                    <mxGeometry x="60" y="180" width="120" height="60" as="geometry"/>
                </mxCell>
                <mxCell id="15" value="成员信息" style="rounded=1;arcSize=10;whiteSpace=wrap;html=1;align=center;" vertex="1" parent="1">
                    <mxGeometry x="-100.00145516989664" y="189.99654044485308" width="100" height="40" as="geometry"/>
                </mxCell>
                <mxCell id="16" value="" style="endArrow=none;html=1;rounded=0;exitX=0.058;exitY=0.467;exitDx=0;exitDy=0;exitPerimeter=0;entryX=1;entryY=0.5;entryDx=0;entryDy=0;" edge="1" parent="1" source="10" target="15">
                    <mxGeometry relative="1" as="geometry">
                        <mxPoint x="-30" y="250" as="sourcePoint"/>
                        <mxPoint x="130" y="250" as="targetPoint"/>
                    </mxGeometry>
                </mxCell>
                <mxCell id="17" value="N" style="resizable=0;html=1;align=right;verticalAlign=bottom;" connectable="0" vertex="1" parent="16">
                    <mxGeometry x="1" relative="1" as="geometry"/>
                </mxCell>
                <mxCell id="18" value="" style="endArrow=none;html=1;rounded=0;exitX=0.5;exitY=0;exitDx=0;exitDy=0;" edge="1" parent="1" source="15" target="19">
                    <mxGeometry relative="1" as="geometry">
                        <mxPoint x="-30" y="250" as="sourcePoint"/>
                        <mxPoint x="-50" y="110" as="targetPoint"/>
                    </mxGeometry>
                </mxCell>
                <mxCell id="19" value="成员编号&lt;br&gt;(PK)" style="ellipse;whiteSpace=wrap;html=1;align=center;" vertex="1" parent="1">
                    <mxGeometry x="-100" y="90" width="100" height="40" as="geometry"/>
                </mxCell>
                <mxCell id="20" value="" style="endArrow=none;html=1;rounded=0;exitX=0;exitY=0;exitDx=0;exitDy=0;" edge="1" parent="1" source="15" target="21">
                    <mxGeometry relative="1" as="geometry">
                        <mxPoint x="-140" y="240" as="sourcePoint"/>
                        <mxPoint x="-180" y="140" as="targetPoint"/>
                    </mxGeometry>
                </mxCell>
                <mxCell id="21" value="姓名" style="ellipse;whiteSpace=wrap;html=1;align=center;" vertex="1" parent="1">
                    <mxGeometry x="-220" y="120" width="100" height="40" as="geometry"/>
                </mxCell>
                <mxCell id="22" value="" style="endArrow=none;html=1;rounded=0;exitX=0;exitY=1;exitDx=0;exitDy=0;" edge="1" parent="1" source="15" target="23">
                    <mxGeometry relative="1" as="geometry">
                        <mxPoint x="-140" y="240" as="sourcePoint"/>
                        <mxPoint x="-160" y="260" as="targetPoint"/>
                    </mxGeometry>
                </mxCell>
                <mxCell id="23" value="性别" style="ellipse;whiteSpace=wrap;html=1;align=center;" vertex="1" parent="1">
                    <mxGeometry x="-230" y="240" width="100" height="40" as="geometry"/>
                </mxCell>
                <mxCell id="24" value="" style="endArrow=none;html=1;rounded=0;exitX=0.5;exitY=1;exitDx=0;exitDy=0;" edge="1" parent="1" source="15" target="25">
                    <mxGeometry relative="1" as="geometry">
                        <mxPoint x="-140" y="240" as="sourcePoint"/>
                        <mxPoint x="-50" y="270" as="targetPoint"/>
                    </mxGeometry>
                </mxCell>
                <mxCell id="25" value="乐队编号(FK)" style="ellipse;whiteSpace=wrap;html=1;align=center;" vertex="1" parent="1">
                    <mxGeometry x="-100" y="280" width="100" height="40" as="geometry"/>
                </mxCell>
                <mxCell id="27" value="" style="endArrow=none;html=1;rounded=0;exitX=1;exitY=0.5;exitDx=0;exitDy=0;" edge="1" parent="1" source="2" target="29">
                    <mxGeometry relative="1" as="geometry">
                        <mxPoint x="260" y="240" as="sourcePoint"/>
                        <mxPoint x="420" y="210" as="targetPoint"/>
                    </mxGeometry>
                </mxCell>
                <mxCell id="28" value="1" style="resizable=0;html=1;align=right;verticalAlign=bottom;" connectable="0" vertex="1" parent="27">
                    <mxGeometry x="1" relative="1" as="geometry"/>
                </mxCell>
                <mxCell id="29" value="拥有" style="shape=rhombus;perimeter=rhombusPerimeter;whiteSpace=wrap;html=1;align=center;" vertex="1" parent="1">
                    <mxGeometry x="360" y="180" width="120" height="60" as="geometry"/>
                </mxCell>
                <mxCell id="30" value="" style="endArrow=none;html=1;rounded=0;exitX=1;exitY=0.5;exitDx=0;exitDy=0;" edge="1" parent="1" source="29" target="32">
                    <mxGeometry relative="1" as="geometry">
                        <mxPoint x="350" y="240" as="sourcePoint"/>
                        <mxPoint x="510" y="240" as="targetPoint"/>
                    </mxGeometry>
                </mxCell>
                <mxCell id="31" value="N" style="resizable=0;html=1;align=right;verticalAlign=bottom;" connectable="0" vertex="1" parent="30">
                    <mxGeometry x="1" relative="1" as="geometry"/>
                </mxCell>
                <mxCell id="32" value="歌迷信息" style="rounded=1;arcSize=10;whiteSpace=wrap;html=1;align=center;" vertex="1" parent="1">
                    <mxGeometry x="520" y="190" width="100" height="40" as="geometry"/>
                </mxCell>
                <mxCell id="33" value="" style="endArrow=none;html=1;rounded=0;exitX=0.25;exitY=0;exitDx=0;exitDy=0;" edge="1" parent="1" source="32" target="34">
                    <mxGeometry relative="1" as="geometry">
                        <mxPoint x="460" y="240" as="sourcePoint"/>
                        <mxPoint x="520" y="140" as="targetPoint"/>
                    </mxGeometry>
                </mxCell>
                <mxCell id="34" value="歌迷编号(PK)" style="ellipse;whiteSpace=wrap;html=1;align=center;" vertex="1" parent="1">
                    <mxGeometry x="460" y="100" width="100" height="40" as="geometry"/>
                </mxCell>
                <mxCell id="35" value="" style="endArrow=none;html=1;rounded=0;exitX=0.75;exitY=0;exitDx=0;exitDy=0;" edge="1" parent="1" source="32" target="36">
                    <mxGeometry relative="1" as="geometry">
                        <mxPoint x="460" y="240" as="sourcePoint"/>
                        <mxPoint x="610" y="140" as="targetPoint"/>
                    </mxGeometry>
                </mxCell>
                <mxCell id="36" value="名字" style="ellipse;whiteSpace=wrap;html=1;align=center;" vertex="1" parent="1">
                    <mxGeometry x="600" y="110" width="100" height="40" as="geometry"/>
                </mxCell>
                <mxCell id="37" value="" style="endArrow=none;html=1;rounded=0;exitX=1;exitY=0.5;exitDx=0;exitDy=0;" edge="1" parent="1" source="32" target="38">
                    <mxGeometry relative="1" as="geometry">
                        <mxPoint x="460" y="240" as="sourcePoint"/>
                        <mxPoint x="670" y="210" as="targetPoint"/>
                    </mxGeometry>
                </mxCell>
                <mxCell id="38" value="性别" style="ellipse;whiteSpace=wrap;html=1;align=center;" vertex="1" parent="1">
                    <mxGeometry x="660" y="190" width="100" height="40" as="geometry"/>
                </mxCell>
                <mxCell id="39" value="" style="endArrow=none;html=1;rounded=0;exitX=0.25;exitY=1;exitDx=0;exitDy=0;" edge="1" parent="1" source="32" target="40">
                    <mxGeometry relative="1" as="geometry">
                        <mxPoint x="460" y="240" as="sourcePoint"/>
                        <mxPoint x="500" y="260" as="targetPoint"/>
                    </mxGeometry>
                </mxCell>
                <mxCell id="40" value="喜欢的乐队编号(FK)" style="ellipse;whiteSpace=wrap;html=1;align=center;" vertex="1" parent="1">
                    <mxGeometry x="460" y="260" width="100" height="40" as="geometry"/>
                </mxCell>
                <mxCell id="41" value="" style="endArrow=none;html=1;rounded=0;entryX=0.75;entryY=1;entryDx=0;entryDy=0;exitX=0.22;exitY=0.05;exitDx=0;exitDy=0;exitPerimeter=0;" edge="1" parent="1" source="42" target="32">
                    <mxGeometry relative="1" as="geometry">
                        <mxPoint x="640" y="310" as="sourcePoint"/>
                        <mxPoint x="620" y="240" as="targetPoint"/>
                    </mxGeometry>
                </mxCell>
                <mxCell id="42" value="喜欢的成员编号(FK)" style="ellipse;whiteSpace=wrap;html=1;align=center;" vertex="1" parent="1">
                    <mxGeometry x="600" y="260" width="100" height="40" as="geometry"/>
                </mxCell>
                <mxCell id="qlWnJIeCkaWnz4uKEVyN-44" value="管理" style="shape=rhombus;perimeter=rhombusPerimeter;whiteSpace=wrap;html=1;align=center;" vertex="1" parent="1">
                    <mxGeometry x="-280" y="170" width="120" height="60" as="geometry"/>
                </mxCell>
                <mxCell id="qlWnJIeCkaWnz4uKEVyN-46" value="" style="endArrow=none;html=1;rounded=0;exitX=0;exitY=0.5;exitDx=0;exitDy=0;entryX=1;entryY=0.5;entryDx=0;entryDy=0;" edge="1" parent="1" source="qlWnJIeCkaWnz4uKEVyN-44" target="qlWnJIeCkaWnz4uKEVyN-85">
                    <mxGeometry relative="1" as="geometry">
                        <mxPoint x="50" y="230" as="sourcePoint"/>
                        <mxPoint x="210" y="230" as="targetPoint"/>
                    </mxGeometry>
                </mxCell>
                <mxCell id="qlWnJIeCkaWnz4uKEVyN-47" value="1" style="resizable=0;html=1;align=right;verticalAlign=bottom;" connectable="0" vertex="1" parent="qlWnJIeCkaWnz4uKEVyN-46">
                    <mxGeometry x="1" relative="1" as="geometry"/>
                </mxCell>
                <mxCell id="qlWnJIeCkaWnz4uKEVyN-48" value="" style="endArrow=none;html=1;rounded=0;entryX=1;entryY=0.5;entryDx=0;entryDy=0;exitX=0;exitY=0.5;exitDx=0;exitDy=0;" edge="1" parent="1" source="15" target="qlWnJIeCkaWnz4uKEVyN-44">
                    <mxGeometry relative="1" as="geometry">
                        <mxPoint x="-100" y="210" as="sourcePoint"/>
                        <mxPoint x="210" y="230" as="targetPoint"/>
                    </mxGeometry>
                </mxCell>
                <mxCell id="qlWnJIeCkaWnz4uKEVyN-49" value="1" style="resizable=0;html=1;align=right;verticalAlign=bottom;" connectable="0" vertex="1" parent="qlWnJIeCkaWnz4uKEVyN-48">
                    <mxGeometry x="1" relative="1" as="geometry"/>
                </mxCell>
                <mxCell id="qlWnJIeCkaWnz4uKEVyN-85" value="队长" style="rounded=1;arcSize=10;whiteSpace=wrap;html=1;align=center;" vertex="1" parent="1">
                    <mxGeometry x="-400.00145516989664" y="179.99654044485308" width="100" height="40" as="geometry"/>
                </mxCell>
                <mxCell id="qlWnJIeCkaWnz4uKEVyN-87" value="" style="endArrow=none;html=1;rounded=0;exitX=0.5;exitY=0;exitDx=0;exitDy=0;" edge="1" parent="1" source="qlWnJIeCkaWnz4uKEVyN-85" target="qlWnJIeCkaWnz4uKEVyN-88">
                    <mxGeometry relative="1" as="geometry">
                        <mxPoint x="-330" y="240" as="sourcePoint"/>
                        <mxPoint x="-350" y="100" as="targetPoint"/>
                    </mxGeometry>
                </mxCell>
                <mxCell id="qlWnJIeCkaWnz4uKEVyN-88" value="成员编号&lt;br&gt;(PK)" style="ellipse;whiteSpace=wrap;html=1;align=center;" vertex="1" parent="1">
                    <mxGeometry x="-400" y="80" width="100" height="40" as="geometry"/>
                </mxCell>
                <mxCell id="qlWnJIeCkaWnz4uKEVyN-89" value="" style="endArrow=none;html=1;rounded=0;exitX=0;exitY=0;exitDx=0;exitDy=0;" edge="1" parent="1" source="qlWnJIeCkaWnz4uKEVyN-85" target="qlWnJIeCkaWnz4uKEVyN-90">
                    <mxGeometry relative="1" as="geometry">
                        <mxPoint x="-440" y="230" as="sourcePoint"/>
                        <mxPoint x="-480" y="130" as="targetPoint"/>
                    </mxGeometry>
                </mxCell>
                <mxCell id="qlWnJIeCkaWnz4uKEVyN-90" value="姓名" style="ellipse;whiteSpace=wrap;html=1;align=center;" vertex="1" parent="1">
                    <mxGeometry x="-520" y="110" width="100" height="40" as="geometry"/>
                </mxCell>
                <mxCell id="qlWnJIeCkaWnz4uKEVyN-91" value="" style="endArrow=none;html=1;rounded=0;exitX=0;exitY=1;exitDx=0;exitDy=0;" edge="1" parent="1" source="qlWnJIeCkaWnz4uKEVyN-85" target="qlWnJIeCkaWnz4uKEVyN-92">
                    <mxGeometry relative="1" as="geometry">
                        <mxPoint x="-440" y="230" as="sourcePoint"/>
                        <mxPoint x="-460" y="250" as="targetPoint"/>
                    </mxGeometry>
                </mxCell>
                <mxCell id="qlWnJIeCkaWnz4uKEVyN-92" value="性别" style="ellipse;whiteSpace=wrap;html=1;align=center;" vertex="1" parent="1">
                    <mxGeometry x="-530" y="230" width="100" height="40" as="geometry"/>
                </mxCell>
                <mxCell id="qlWnJIeCkaWnz4uKEVyN-93" value="" style="endArrow=none;html=1;rounded=0;exitX=0.5;exitY=1;exitDx=0;exitDy=0;" edge="1" parent="1" source="qlWnJIeCkaWnz4uKEVyN-85" target="qlWnJIeCkaWnz4uKEVyN-94">
                    <mxGeometry relative="1" as="geometry">
                        <mxPoint x="-440" y="230" as="sourcePoint"/>
                        <mxPoint x="-350" y="260" as="targetPoint"/>
                    </mxGeometry>
                </mxCell>
                <mxCell id="qlWnJIeCkaWnz4uKEVyN-94" value="乐队编号(FK)" style="ellipse;whiteSpace=wrap;html=1;align=center;" vertex="1" parent="1">
                    <mxGeometry x="-400" y="270" width="100" height="40" as="geometry"/>
                </mxCell>
                <mxCell id="qlWnJIeCkaWnz4uKEVyN-95" value="1" style="resizable=0;html=1;align=right;verticalAlign=bottom;" connectable="0" vertex="1" parent="1">
                    <mxGeometry x="-299.9201562517758" y="220.06429258774062" as="geometry"/>
                </mxCell>
            </root>
        </mxGraphModel>
    </diagram>
    <diagram id="wGtKMXAPnV5oP38UYBZw" name="第 2 页">
        <mxGraphModel grid="1" page="1" gridSize="10" guides="1" tooltips="1" connect="1" arrows="1" fold="1" pageScale="1" pageWidth="900" pageHeight="1600" math="0" shadow="0">
            <root>
                <mxCell id="0"/>
                <mxCell id="1" parent="0"/>
                <mxCell id="1r6Eamk1EsDFpYJAhkW6-1" value="乐队" style="rounded=1;arcSize=10;whiteSpace=wrap;html=1;align=center;" vertex="1" parent="1">
                    <mxGeometry x="220" y="190" width="100" height="40" as="geometry"/>
                </mxCell>
                <mxCell id="1r6Eamk1EsDFpYJAhkW6-2" value="名称" style="ellipse;whiteSpace=wrap;html=1;align=center;" vertex="1" parent="1">
                    <mxGeometry x="170" y="90" width="100" height="40" as="geometry"/>
                </mxCell>
                <mxCell id="1r6Eamk1EsDFpYJAhkW6-3" value="" style="endArrow=none;html=1;rounded=0;exitX=0.5;exitY=1;exitDx=0;exitDy=0;entryX=0.5;entryY=0;entryDx=0;entryDy=0;" edge="1" parent="1" source="1r6Eamk1EsDFpYJAhkW6-2" target="1r6Eamk1EsDFpYJAhkW6-1">
                    <mxGeometry relative="1" as="geometry">
                        <mxPoint x="120" y="250" as="sourcePoint"/>
                        <mxPoint x="280" y="250" as="targetPoint"/>
                    </mxGeometry>
                </mxCell>
                <mxCell id="1r6Eamk1EsDFpYJAhkW6-4" value="" style="endArrow=none;html=1;rounded=0;exitX=0.5;exitY=0;exitDx=0;exitDy=0;" edge="1" parent="1" source="1r6Eamk1EsDFpYJAhkW6-1" target="1r6Eamk1EsDFpYJAhkW6-5">
                    <mxGeometry relative="1" as="geometry">
                        <mxPoint x="120" y="250" as="sourcePoint"/>
                        <mxPoint x="280" y="250" as="targetPoint"/>
                    </mxGeometry>
                </mxCell>
                <mxCell id="1r6Eamk1EsDFpYJAhkW6-5" value="乐队编号(PK)" style="ellipse;whiteSpace=wrap;html=1;align=center;" vertex="1" parent="1">
                    <mxGeometry x="290" y="90" width="100" height="40" as="geometry"/>
                </mxCell>
                <mxCell id="1r6Eamk1EsDFpYJAhkW6-6" value="" style="endArrow=none;html=1;rounded=0;exitX=0;exitY=0.5;exitDx=0;exitDy=0;" edge="1" parent="1" source="1r6Eamk1EsDFpYJAhkW6-1" target="1r6Eamk1EsDFpYJAhkW6-8">
                    <mxGeometry relative="1" as="geometry">
                        <mxPoint x="120" y="250" as="sourcePoint"/>
                        <mxPoint x="280" y="250" as="targetPoint"/>
                    </mxGeometry>
                </mxCell>
                <mxCell id="1r6Eamk1EsDFpYJAhkW6-7" value="1" style="resizable=0;html=1;align=right;verticalAlign=bottom;" connectable="0" vertex="1" parent="1r6Eamk1EsDFpYJAhkW6-6">
                    <mxGeometry x="1" relative="1" as="geometry"/>
                </mxCell>
                <mxCell id="1r6Eamk1EsDFpYJAhkW6-8" value="组成" style="shape=rhombus;perimeter=rhombusPerimeter;whiteSpace=wrap;html=1;align=center;" vertex="1" parent="1">
                    <mxGeometry x="60" y="180" width="120" height="60" as="geometry"/>
                </mxCell>
                <mxCell id="1r6Eamk1EsDFpYJAhkW6-9" value="成员信息" style="rounded=1;arcSize=10;whiteSpace=wrap;html=1;align=center;" vertex="1" parent="1">
                    <mxGeometry x="-100.00145516989664" y="189.99654044485308" width="100" height="40" as="geometry"/>
                </mxCell>
                <mxCell id="1r6Eamk1EsDFpYJAhkW6-10" value="" style="endArrow=none;html=1;rounded=0;exitX=0.058;exitY=0.467;exitDx=0;exitDy=0;exitPerimeter=0;entryX=1;entryY=0.5;entryDx=0;entryDy=0;" edge="1" parent="1" source="1r6Eamk1EsDFpYJAhkW6-8" target="1r6Eamk1EsDFpYJAhkW6-9">
                    <mxGeometry relative="1" as="geometry">
                        <mxPoint x="-30" y="250" as="sourcePoint"/>
                        <mxPoint x="130" y="250" as="targetPoint"/>
                    </mxGeometry>
                </mxCell>
                <mxCell id="1r6Eamk1EsDFpYJAhkW6-11" value="N" style="resizable=0;html=1;align=right;verticalAlign=bottom;" connectable="0" vertex="1" parent="1r6Eamk1EsDFpYJAhkW6-10">
                    <mxGeometry x="1" relative="1" as="geometry"/>
                </mxCell>
                <mxCell id="1r6Eamk1EsDFpYJAhkW6-12" value="" style="endArrow=none;html=1;rounded=0;exitX=0.5;exitY=0;exitDx=0;exitDy=0;" edge="1" parent="1" source="1r6Eamk1EsDFpYJAhkW6-9" target="1r6Eamk1EsDFpYJAhkW6-13">
                    <mxGeometry relative="1" as="geometry">
                        <mxPoint x="-30" y="250" as="sourcePoint"/>
                        <mxPoint x="-50" y="110" as="targetPoint"/>
                    </mxGeometry>
                </mxCell>
                <mxCell id="1r6Eamk1EsDFpYJAhkW6-13" value="成员编号&lt;br&gt;(PK)" style="ellipse;whiteSpace=wrap;html=1;align=center;" vertex="1" parent="1">
                    <mxGeometry x="-100" y="90" width="100" height="40" as="geometry"/>
                </mxCell>
                <mxCell id="1r6Eamk1EsDFpYJAhkW6-14" value="" style="endArrow=none;html=1;rounded=0;exitX=0;exitY=0;exitDx=0;exitDy=0;" edge="1" parent="1" source="1r6Eamk1EsDFpYJAhkW6-9" target="1r6Eamk1EsDFpYJAhkW6-15">
                    <mxGeometry relative="1" as="geometry">
                        <mxPoint x="-140" y="240" as="sourcePoint"/>
                        <mxPoint x="-180" y="140" as="targetPoint"/>
                    </mxGeometry>
                </mxCell>
                <mxCell id="1r6Eamk1EsDFpYJAhkW6-15" value="姓名" style="ellipse;whiteSpace=wrap;html=1;align=center;" vertex="1" parent="1">
                    <mxGeometry x="-220" y="120" width="100" height="40" as="geometry"/>
                </mxCell>
                <mxCell id="1r6Eamk1EsDFpYJAhkW6-16" value="" style="endArrow=none;html=1;rounded=0;exitX=0;exitY=1;exitDx=0;exitDy=0;" edge="1" parent="1" source="1r6Eamk1EsDFpYJAhkW6-9" target="1r6Eamk1EsDFpYJAhkW6-17">
                    <mxGeometry relative="1" as="geometry">
                        <mxPoint x="-140" y="240" as="sourcePoint"/>
                        <mxPoint x="-160" y="260" as="targetPoint"/>
                    </mxGeometry>
                </mxCell>
                <mxCell id="1r6Eamk1EsDFpYJAhkW6-17" value="性别" style="ellipse;whiteSpace=wrap;html=1;align=center;" vertex="1" parent="1">
                    <mxGeometry x="-230" y="240" width="100" height="40" as="geometry"/>
                </mxCell>
                <mxCell id="1r6Eamk1EsDFpYJAhkW6-18" value="" style="endArrow=none;html=1;rounded=0;exitX=1;exitY=1;exitDx=0;exitDy=0;" edge="1" parent="1" source="1r6Eamk1EsDFpYJAhkW6-9" target="1r6Eamk1EsDFpYJAhkW6-19">
                    <mxGeometry relative="1" as="geometry">
                        <mxPoint x="-140" y="240" as="sourcePoint"/>
                        <mxPoint x="-50" y="270" as="targetPoint"/>
                    </mxGeometry>
                </mxCell>
                <mxCell id="1r6Eamk1EsDFpYJAhkW6-19" value="乐队编号(FK)" style="ellipse;whiteSpace=wrap;html=1;align=center;" vertex="1" parent="1">
                    <mxGeometry y="270" width="100" height="40" as="geometry"/>
                </mxCell>
                <mxCell id="1r6Eamk1EsDFpYJAhkW6-20" value="" style="endArrow=none;html=1;rounded=0;exitX=1;exitY=0.5;exitDx=0;exitDy=0;" edge="1" parent="1" source="1r6Eamk1EsDFpYJAhkW6-1" target="1r6Eamk1EsDFpYJAhkW6-22">
                    <mxGeometry relative="1" as="geometry">
                        <mxPoint x="260" y="240" as="sourcePoint"/>
                        <mxPoint x="420" y="210" as="targetPoint"/>
                    </mxGeometry>
                </mxCell>
                <mxCell id="1r6Eamk1EsDFpYJAhkW6-21" value="1" style="resizable=0;html=1;align=right;verticalAlign=bottom;" connectable="0" vertex="1" parent="1r6Eamk1EsDFpYJAhkW6-20">
                    <mxGeometry x="1" relative="1" as="geometry"/>
                </mxCell>
                <mxCell id="1r6Eamk1EsDFpYJAhkW6-22" value="拥有" style="shape=rhombus;perimeter=rhombusPerimeter;whiteSpace=wrap;html=1;align=center;" vertex="1" parent="1">
                    <mxGeometry x="360" y="180" width="120" height="60" as="geometry"/>
                </mxCell>
                <mxCell id="1r6Eamk1EsDFpYJAhkW6-23" value="" style="endArrow=none;html=1;rounded=0;exitX=1;exitY=0.5;exitDx=0;exitDy=0;" edge="1" parent="1" source="1r6Eamk1EsDFpYJAhkW6-22" target="1r6Eamk1EsDFpYJAhkW6-25">
                    <mxGeometry relative="1" as="geometry">
                        <mxPoint x="350" y="240" as="sourcePoint"/>
                        <mxPoint x="510" y="240" as="targetPoint"/>
                    </mxGeometry>
                </mxCell>
                <mxCell id="1r6Eamk1EsDFpYJAhkW6-24" value="N" style="resizable=0;html=1;align=right;verticalAlign=bottom;" connectable="0" vertex="1" parent="1r6Eamk1EsDFpYJAhkW6-23">
                    <mxGeometry x="1" relative="1" as="geometry"/>
                </mxCell>
                <mxCell id="1r6Eamk1EsDFpYJAhkW6-25" value="歌迷信息" style="rounded=1;arcSize=10;whiteSpace=wrap;html=1;align=center;" vertex="1" parent="1">
                    <mxGeometry x="520" y="190" width="100" height="40" as="geometry"/>
                </mxCell>
                <mxCell id="1r6Eamk1EsDFpYJAhkW6-26" value="" style="endArrow=none;html=1;rounded=0;exitX=0.25;exitY=0;exitDx=0;exitDy=0;" edge="1" parent="1" source="1r6Eamk1EsDFpYJAhkW6-25" target="1r6Eamk1EsDFpYJAhkW6-27">
                    <mxGeometry relative="1" as="geometry">
                        <mxPoint x="460" y="240" as="sourcePoint"/>
                        <mxPoint x="520" y="140" as="targetPoint"/>
                    </mxGeometry>
                </mxCell>
                <mxCell id="1r6Eamk1EsDFpYJAhkW6-27" value="歌迷编号(PK)" style="ellipse;whiteSpace=wrap;html=1;align=center;" vertex="1" parent="1">
                    <mxGeometry x="460" y="100" width="100" height="40" as="geometry"/>
                </mxCell>
                <mxCell id="1r6Eamk1EsDFpYJAhkW6-28" value="" style="endArrow=none;html=1;rounded=0;exitX=0.75;exitY=0;exitDx=0;exitDy=0;" edge="1" parent="1" source="1r6Eamk1EsDFpYJAhkW6-25" target="1r6Eamk1EsDFpYJAhkW6-29">
                    <mxGeometry relative="1" as="geometry">
                        <mxPoint x="460" y="240" as="sourcePoint"/>
                        <mxPoint x="610" y="140" as="targetPoint"/>
                    </mxGeometry>
                </mxCell>
                <mxCell id="1r6Eamk1EsDFpYJAhkW6-29" value="名字" style="ellipse;whiteSpace=wrap;html=1;align=center;" vertex="1" parent="1">
                    <mxGeometry x="600" y="110" width="100" height="40" as="geometry"/>
                </mxCell>
                <mxCell id="1r6Eamk1EsDFpYJAhkW6-30" value="" style="endArrow=none;html=1;rounded=0;exitX=1;exitY=0.5;exitDx=0;exitDy=0;" edge="1" parent="1" source="1r6Eamk1EsDFpYJAhkW6-25" target="1r6Eamk1EsDFpYJAhkW6-31">
                    <mxGeometry relative="1" as="geometry">
                        <mxPoint x="460" y="240" as="sourcePoint"/>
                        <mxPoint x="670" y="210" as="targetPoint"/>
                    </mxGeometry>
                </mxCell>
                <mxCell id="1r6Eamk1EsDFpYJAhkW6-31" value="性别" style="ellipse;whiteSpace=wrap;html=1;align=center;" vertex="1" parent="1">
                    <mxGeometry x="660" y="190" width="100" height="40" as="geometry"/>
                </mxCell>
                <mxCell id="1r6Eamk1EsDFpYJAhkW6-32" value="" style="endArrow=none;html=1;rounded=0;exitX=0.25;exitY=1;exitDx=0;exitDy=0;" edge="1" parent="1" source="1r6Eamk1EsDFpYJAhkW6-25" target="1r6Eamk1EsDFpYJAhkW6-33">
                    <mxGeometry relative="1" as="geometry">
                        <mxPoint x="460" y="240" as="sourcePoint"/>
                        <mxPoint x="500" y="260" as="targetPoint"/>
                    </mxGeometry>
                </mxCell>
                <mxCell id="1r6Eamk1EsDFpYJAhkW6-33" value="喜欢的乐队编号(FK)" style="ellipse;whiteSpace=wrap;html=1;align=center;" vertex="1" parent="1">
                    <mxGeometry x="460" y="260" width="100" height="40" as="geometry"/>
                </mxCell>
                <mxCell id="1r6Eamk1EsDFpYJAhkW6-34" value="" style="endArrow=none;html=1;rounded=0;entryX=0.75;entryY=1;entryDx=0;entryDy=0;exitX=0.22;exitY=0.05;exitDx=0;exitDy=0;exitPerimeter=0;" edge="1" parent="1" source="1r6Eamk1EsDFpYJAhkW6-35" target="1r6Eamk1EsDFpYJAhkW6-25">
                    <mxGeometry relative="1" as="geometry">
                        <mxPoint x="640" y="310" as="sourcePoint"/>
                        <mxPoint x="620" y="240" as="targetPoint"/>
                    </mxGeometry>
                </mxCell>
                <mxCell id="1r6Eamk1EsDFpYJAhkW6-35" value="喜欢的成员编号(FK)" style="ellipse;whiteSpace=wrap;html=1;align=center;" vertex="1" parent="1">
                    <mxGeometry x="600" y="260" width="100" height="40" as="geometry"/>
                </mxCell>
                <mxCell id="1r6Eamk1EsDFpYJAhkW6-39" value="" style="endArrow=none;html=1;rounded=0;exitX=0.5;exitY=1;exitDx=0;exitDy=0;entryX=0.5;entryY=0;entryDx=0;entryDy=0;" edge="1" parent="1" source="1r6Eamk1EsDFpYJAhkW6-9" target="1r6Eamk1EsDFpYJAhkW6-42">
                    <mxGeometry relative="1" as="geometry">
                        <mxPoint x="230" y="250" as="sourcePoint"/>
                        <mxPoint x="275.3846153846155" y="262.30769230769226" as="targetPoint"/>
                    </mxGeometry>
                </mxCell>
                <mxCell id="1r6Eamk1EsDFpYJAhkW6-40" value="1" style="resizable=0;html=1;align=right;verticalAlign=bottom;" connectable="0" vertex="1" parent="1r6Eamk1EsDFpYJAhkW6-39">
                    <mxGeometry x="1" relative="1" as="geometry"/>
                </mxCell>
                <mxCell id="1r6Eamk1EsDFpYJAhkW6-42" value="记录" style="shape=rhombus;perimeter=rhombusPerimeter;whiteSpace=wrap;html=1;align=center;" vertex="1" parent="1">
                    <mxGeometry x="-110" y="290" width="120" height="60" as="geometry"/>
                </mxCell>
                <mxCell id="1r6Eamk1EsDFpYJAhkW6-44" value="" style="endArrow=none;html=1;rounded=0;exitX=0.5;exitY=1;exitDx=0;exitDy=0;" edge="1" parent="1" source="1r6Eamk1EsDFpYJAhkW6-42" target="1r6Eamk1EsDFpYJAhkW6-46">
                    <mxGeometry relative="1" as="geometry">
                        <mxPoint x="-80" y="350" as="sourcePoint"/>
                        <mxPoint x="80" y="350" as="targetPoint"/>
                    </mxGeometry>
                </mxCell>
                <mxCell id="1r6Eamk1EsDFpYJAhkW6-45" value="1" style="resizable=0;html=1;align=right;verticalAlign=bottom;" connectable="0" vertex="1" parent="1r6Eamk1EsDFpYJAhkW6-44">
                    <mxGeometry x="1" relative="1" as="geometry"/>
                </mxCell>
                <mxCell id="1r6Eamk1EsDFpYJAhkW6-46" value="工作记录" style="rounded=1;arcSize=10;whiteSpace=wrap;html=1;align=center;" vertex="1" parent="1">
                    <mxGeometry x="-100" y="390" width="100" height="40" as="geometry"/>
                </mxCell>
                <mxCell id="1r6Eamk1EsDFpYJAhkW6-47" value="" style="endArrow=none;html=1;rounded=0;exitX=0;exitY=0.5;exitDx=0;exitDy=0;" edge="1" parent="1" source="1r6Eamk1EsDFpYJAhkW6-46" target="1r6Eamk1EsDFpYJAhkW6-48">
                    <mxGeometry relative="1" as="geometry">
                        <mxPoint x="-80" y="450" as="sourcePoint"/>
                        <mxPoint x="80" y="450" as="targetPoint"/>
                    </mxGeometry>
                </mxCell>
                <mxCell id="1r6Eamk1EsDFpYJAhkW6-48" value="工作记录编号(PK)" style="ellipse;whiteSpace=wrap;html=1;align=center;" vertex="1" parent="1">
                    <mxGeometry x="-250" y="390" width="100" height="40" as="geometry"/>
                </mxCell>
                <mxCell id="1r6Eamk1EsDFpYJAhkW6-49" value="" style="endArrow=none;html=1;rounded=0;exitX=0;exitY=1;exitDx=0;exitDy=0;" edge="1" parent="1" source="1r6Eamk1EsDFpYJAhkW6-46" target="1r6Eamk1EsDFpYJAhkW6-50">
                    <mxGeometry relative="1" as="geometry">
                        <mxPoint x="-80" y="450" as="sourcePoint"/>
                        <mxPoint x="-170" y="490" as="targetPoint"/>
                    </mxGeometry>
                </mxCell>
                <mxCell id="1r6Eamk1EsDFpYJAhkW6-50" value="成员编号(FK)" style="ellipse;whiteSpace=wrap;html=1;align=center;" vertex="1" parent="1">
                    <mxGeometry x="-220" y="470" width="100" height="40" as="geometry"/>
                </mxCell>
                <mxCell id="1r6Eamk1EsDFpYJAhkW6-51" value="" style="endArrow=none;html=1;rounded=0;exitX=0.5;exitY=1;exitDx=0;exitDy=0;" edge="1" parent="1" source="1r6Eamk1EsDFpYJAhkW6-46" target="1r6Eamk1EsDFpYJAhkW6-52">
                    <mxGeometry relative="1" as="geometry">
                        <mxPoint x="-200" y="450" as="sourcePoint"/>
                        <mxPoint x="-50" y="500" as="targetPoint"/>
                    </mxGeometry>
                </mxCell>
                <mxCell id="1r6Eamk1EsDFpYJAhkW6-52" value="乐队编号(FK)" style="ellipse;whiteSpace=wrap;html=1;align=center;" vertex="1" parent="1">
                    <mxGeometry x="-100" y="500" width="100" height="40" as="geometry"/>
                </mxCell>
                <mxCell id="1r6Eamk1EsDFpYJAhkW6-53" value="" style="endArrow=none;html=1;rounded=0;exitX=1;exitY=1;exitDx=0;exitDy=0;" edge="1" parent="1" source="1r6Eamk1EsDFpYJAhkW6-46" target="1r6Eamk1EsDFpYJAhkW6-54">
                    <mxGeometry relative="1" as="geometry">
                        <mxPoint x="-50" y="450" as="sourcePoint"/>
                        <mxPoint x="60" y="490" as="targetPoint"/>
                    </mxGeometry>
                </mxCell>
                <mxCell id="1r6Eamk1EsDFpYJAhkW6-54" value="进入时间" style="ellipse;whiteSpace=wrap;html=1;align=center;" vertex="1" parent="1">
                    <mxGeometry x="10" y="470" width="100" height="40" as="geometry"/>
                </mxCell>
                <mxCell id="1r6Eamk1EsDFpYJAhkW6-55" value="" style="endArrow=none;html=1;rounded=0;exitX=1;exitY=0.5;exitDx=0;exitDy=0;" edge="1" parent="1" source="1r6Eamk1EsDFpYJAhkW6-46" target="1r6Eamk1EsDFpYJAhkW6-56">
                    <mxGeometry relative="1" as="geometry">
                        <mxPoint x="-50" y="450" as="sourcePoint"/>
                        <mxPoint x="110" y="450" as="targetPoint"/>
                    </mxGeometry>
                </mxCell>
                <mxCell id="1r6Eamk1EsDFpYJAhkW6-56" value="离开时间" style="ellipse;whiteSpace=wrap;html=1;align=center;" vertex="1" parent="1">
                    <mxGeometry x="50" y="390" width="100" height="40" as="geometry"/>
                </mxCell>
                <mxCell id="1r6Eamk1EsDFpYJAhkW6-57" value="" style="endArrow=none;html=1;rounded=0;exitX=0;exitY=0.5;exitDx=0;exitDy=0;" edge="1" parent="1" source="1r6Eamk1EsDFpYJAhkW6-9">
                    <mxGeometry relative="1" as="geometry">
                        <mxPoint x="-270" y="250" as="sourcePoint"/>
                        <mxPoint x="-150.00377387270373" y="209.99811306364813" as="targetPoint"/>
                    </mxGeometry>
                </mxCell>
                <mxCell id="1r6Eamk1EsDFpYJAhkW6-59" value="队长" style="ellipse;whiteSpace=wrap;html=1;align=center;" vertex="1" parent="1">
                    <mxGeometry x="-250" y="190" width="100" height="40" as="geometry"/>
                </mxCell>
            </root>
        </mxGraphModel>
    </diagram>
</mxfile>